<?xml version="1.0" standalone="no"?>
<!DOCTYPE svg PUBLIC "-//W3C//DTD SVG 20010904//EN"
 "http://www.w3.org/TR/2001/REC-SVG-20010904/DTD/svg10.dtd">
<svg version="1.0" xmlns="http://www.w3.org/2000/svg"
 width="364.000000pt" height="419.000000pt" viewBox="0 0 364.000000 419.000000"
 preserveAspectRatio="xMidYMid meet">

<g transform="translate(0.000000,419.000000) scale(0.100000,-0.100000)"
fill="#000000" stroke="none">
<path d="M2281 3643 c-567 -72 -1040 -410 -1280 -913 -165 -348 -192 -786 -69
-1154 180 -544 638 -948 1202 -1061 97 -19 288 -36 299 -25 5 4 7 20 5 36 -3
27 -6 29 -43 26 -52 -4 -239 23 -340 50 -491 130 -894 510 -1053 993 -59 178
-75 281 -75 475 -1 191 17 309 69 470 193 590 729 1010 1337 1047 88 5 107 9
102 20 -3 8 -5 23 -5 34 0 22 5 22 -149 2z"/>
<path d="M2145 3465 c-16 -7 -75 -27 -130 -44 -371 -113 -687 -387 -865 -752
-96 -196 -134 -367 -134 -599 1 -181 18 -296 70 -449 74 -221 197 -415 367
-578 309 -295 718 -433 1150 -389 70 7 77 10 77 29 0 41 -14 51 -50 38 -42
-14 -254 -14 -357 0 -363 49 -700 246 -918 537 -362 483 -362 1150 -1 1630
186 246 466 434 754 504 67 17 91 27 87 36 -3 8 -5 22 -5 33 0 22 -4 22 -45 4z"/>
<path d="M1975 3250 c-4 -6 -39 -26 -78 -45 -317 -150 -570 -443 -672 -779
-146 -480 20 -1019 411 -1335 258 -209 601 -315 916 -282 96 9 281 49 309 66
7 5 -8 65 -17 65 -3 0 -15 -6 -27 -14 -12 -8 -69 -25 -127 -36 -91 -19 -126
-21 -265 -17 -234 8 -406 56 -592 167 -221 131 -387 318 -491 555 -69 156 -95
287 -96 475 0 217 30 354 121 535 121 242 310 430 550 547 57 28 103 55 103
60 0 16 -20 48 -30 48 -5 0 -12 -5 -15 -10z"/>
<path d="M1870 3023 c0 -7 -28 -31 -62 -54 -137 -92 -294 -276 -374 -438 -96
-194 -127 -464 -80 -687 92 -434 418 -757 871 -861 101 -23 326 -23 430 1 103
24 238 71 293 102 l42 25 -17 29 -17 29 -27 -23 c-35 -30 -181 -83 -277 -102
-150 -29 -377 -13 -532 37 -203 65 -417 226 -537 404 -216 320 -242 720 -69
1064 71 140 205 292 337 381 32 23 59 45 59 49 0 14 -39 57 -40 44z"/>
<path d="M1765 2723 c-119 -120 -209 -276 -247 -427 -31 -126 -31 -344 0 -459
96 -352 377 -621 722 -693 262 -55 548 6 763 163 l48 36 -22 23 -22 23 -39
-34 c-52 -44 -154 -97 -253 -131 -68 -23 -101 -28 -222 -32 -185 -6 -287 16
-442 93 -256 129 -423 351 -477 633 -52 270 42 576 235 766 57 56 60 61 44 78
-9 10 -19 18 -23 18 -4 0 -33 -26 -65 -57z"/>
<path d="M1795 2513 c-47 -62 -100 -172 -122 -253 -13 -48 -18 -101 -17 -200
1 -123 3 -143 31 -228 44 -131 101 -222 203 -323 73 -74 102 -94 191 -138 57
-28 133 -59 169 -68 90 -24 292 -23 380 1 137 37 286 123 375 216 l40 41 -24
18 c-24 18 -25 18 -49 -10 -67 -81 -224 -172 -352 -205 -91 -24 -242 -22 -345
5 -138 36 -235 91 -334 190 -145 145 -209 286 -218 481 -8 163 27 295 112 424
35 53 42 72 34 82 -19 24 -37 16 -74 -33z"/>
<path d="M1888 2353 c-72 -82 -98 -281 -58 -437 53 -210 208 -374 414 -443 67
-22 99 -27 191 -27 95 -1 122 3 198 28 48 16 114 45 145 66 95 61 214 193 197
219 -14 24 -44 7 -105 -60 -116 -130 -248 -193 -405 -192 -236 0 -427 116
-529 320 -73 146 -75 347 -5 485 17 33 18 42 7 49 -20 13 -33 11 -50 -8z"/>
<path d="M1994 2199 c-16 -18 -19 -37 -19 -133 0 -107 1 -113 37 -189 71 -148
195 -242 356 -269 144 -24 297 26 403 132 66 66 119 158 97 171 -29 19 -51 3
-83 -60 -26 -53 -100 -120 -166 -151 -195 -92 -446 0 -541 199 -26 54 -33 81
-36 153 -3 51 0 100 7 119 9 25 8 34 -1 41 -21 13 -34 9 -54 -13z"/>
<path d="M2143 2103 c-20 -7 -16 -86 8 -147 25 -67 86 -133 154 -166 41 -21
65 -25 135 -25 72 0 92 4 135 27 81 42 142 117 169 206 6 19 4 22 -17 22 -28
0 -47 -19 -75 -75 -26 -52 -56 -79 -116 -106 -145 -64 -336 63 -336 223 0 43
-2 48 -22 47 -13 0 -29 -3 -35 -6z"/>
<path d="M2313 2063 c-29 -6 -29 -31 0 -74 73 -110 248 -79 273 49 10 48 -21
42 -72 -14 -39 -42 -45 -45 -76 -39 -38 8 -67 31 -79 63 -5 12 -12 21 -16 21
-5 -1 -18 -4 -30 -6z"/>
</g>
</svg>
